<svg width="40" height="41" viewBox="0 0 40 41" fill="none" xmlns="http://www.w3.org/2000/svg">
<path fill-rule="evenodd" clip-rule="evenodd" d="M19.9999 39.8367C30.688 39.8367 39.3524 31.1724 39.3524 20.4843C39.3524 9.79622 30.688 1.13184 19.9999 1.13184C9.31185 1.13184 0.647461 9.79622 0.647461 20.4843C0.647461 31.1724 9.31185 39.8367 19.9999 39.8367ZM20 36.1151C28.6327 36.1151 35.6308 29.1169 35.6308 20.4842C35.6308 11.8516 28.6327 4.85341 20 4.85341C11.3673 4.85341 4.36916 11.8516 4.36916 20.4842C4.36916 29.1169 11.3673 36.1151 20 36.1151Z" fill="#84CD98"/>
<rect x="30.4207" y="19.7393" width="3.72163" height="1.48865" rx="0.744325" fill="#84CD98"/>
<rect x="5.85791" y="19.7393" width="3.72163" height="1.48865" rx="0.744325" fill="#84CD98"/>
<rect x="19.2556" y="10.0635" width="3.72163" height="1.48865" rx="0.744325" transform="rotate(-90 19.2556 10.0635)" fill="#84CD98"/>
<rect x="19.2556" y="34.626" width="3.72163" height="1.48865" rx="0.744325" transform="rotate(-90 19.2556 34.626)" fill="#84CD98"/>
<rect x="29.4739" y="28.9053" width="1.48865" height="1.48865" rx="0.744325" transform="rotate(45 29.4739 28.9053)" fill="#84CD98"/>
<rect x="10.5261" y="9.95801" width="1.48865" height="1.48865" rx="0.744325" transform="rotate(45 10.5261 9.95801)" fill="#84CD98"/>
<rect x="28.4211" y="11.0107" width="1.48865" height="1.48865" rx="0.744325" transform="rotate(-45 28.4211 11.0107)" fill="#84CD98"/>
<rect x="9.47363" y="29.958" width="1.48865" height="1.48865" rx="0.744325" transform="rotate(-45 9.47363 29.958)" fill="#84CD98"/>
<rect x="18.5112" y="19.7402" width="10.4206" height="1.48865" rx="0.744325" fill="#84CD98"/>
<circle cx="20" cy="20.4841" r="2.9773" fill="#84CD98"/>
<rect x="19.2556" y="20.5967" width="14.3961" height="1.48865" rx="0.744325" transform="rotate(-69.7949 19.2556 20.5967)" fill="#84CD98"/>
</svg>
