<svg width="32" height="47" viewBox="0 0 32 47" fill="none" xmlns="http://www.w3.org/2000/svg">
<path fill-rule="evenodd" clip-rule="evenodd" d="M17.5963 45.1583C21.6459 39.1544 32 23.1085 32 16C32 7.16344 24.8366 0 16 0C7.16344 0 0 7.16344 0 16C0 23.1085 10.3541 39.1544 14.4037 45.1583C15.176 46.3032 16.824 46.3032 17.5963 45.1583ZM15.9999 24.7745C21.1308 24.7745 25.2902 20.615 25.2902 15.4841C25.2902 10.3532 21.1308 6.19381 15.9999 6.19381C10.869 6.19381 6.70954 10.3532 6.70954 15.4841C6.70954 20.615 10.869 24.7745 15.9999 24.7745Z" fill="#84CD98"/>
</svg>
