<svg width="40" height="40" viewBox="0 0 40 40" fill="none" xmlns="http://www.w3.org/2000/svg">
<path fill-rule="evenodd" clip-rule="evenodd" d="M19.9995 40C31.0452 40 39.9995 31.0457 39.9995 20C39.9995 8.9543 31.0452 0 19.9995 0C8.95382 0 -0.000488281 8.9543 -0.000488281 20C-0.000488281 31.0457 8.95382 40 19.9995 40ZM14.5013 12.1126C14.27 12.1999 14.0599 12.3355 13.8849 12.5102L12.851 13.5442C12.111 14.2843 11.786 15.3913 12.148 16.4214C13.0766 19.06 14.5872 21.4556 16.5678 23.4307C18.5431 25.4116 20.9389 26.9224 23.5776 27.8509C24.6086 28.2139 25.7146 27.8889 26.4545 27.1489L27.4885 26.1148C28.2305 25.3738 28.1545 24.1487 27.3255 23.5037L25.0196 21.7096C24.8107 21.5473 24.5677 21.4346 24.3089 21.38C24.0501 21.3255 23.7822 21.3304 23.5256 21.3946L21.3367 21.9416C21.2231 21.9701 21.1041 21.9687 20.9913 21.9375C20.8784 21.9063 20.7755 21.8464 20.6927 21.7636L18.2358 19.3065C18.1532 19.2238 18.0934 19.1211 18.0622 19.0084C18.031 18.8957 18.0295 18.7769 18.0578 18.6635L18.6048 16.4734C18.7348 15.9534 18.6188 15.4023 18.2898 14.9793L16.4948 12.6732C16.343 12.4781 16.1514 12.3174 15.9327 12.202C15.7141 12.0865 15.4734 12.0188 15.2266 12.0034C14.9798 11.988 14.7326 12.0252 14.5013 12.1126Z" fill="#37474F"/>
</svg>
