<svg width="40" height="40" viewBox="0 0 40 40" fill="none" xmlns="http://www.w3.org/2000/svg">
<circle cx="19.9995" cy="20" r="20" fill="#2F89CE"/>
<path d="M9.35021 20.3741L13.9483 22.0886L15.7408 27.8557C15.8187 28.2454 16.2863 28.3233 16.598 28.0895L19.1698 25.9853C19.4036 25.7515 19.7933 25.7515 20.1051 25.9853L24.7031 29.3364C25.0149 29.5702 25.4825 29.4144 25.5604 29.0247L28.9895 12.6587C29.0674 12.269 28.6778 11.8793 28.2881 12.0352L9.35021 19.3609C8.88261 19.5168 8.88261 20.2182 9.35021 20.3741ZM15.507 21.2313L24.5473 15.6981C24.7031 15.6201 24.859 15.8539 24.7031 15.9319L17.2994 22.868C17.0656 23.1018 16.8318 23.4135 16.8318 23.8032L16.598 25.6736C16.598 25.9074 16.2084 25.9853 16.1304 25.6736L15.1952 22.2445C14.9614 21.8548 15.1173 21.3872 15.507 21.2313Z" fill="white"/>
</svg>
