<svg width="142" height="45" viewBox="0 0 142 45" fill="none" xmlns="http://www.w3.org/2000/svg">
<path d="M36.8774 26.2694C36.3385 26.2694 35.8795 26.1297 35.5002 25.8503C35.121 25.5709 34.8915 25.2016 34.8117 24.7426C34.7318 24.2636 34.8416 23.7247 35.141 23.1259L37.3265 18.8447V20.192L29.6323 7.67773C29.313 7.1588 29.1832 6.6698 29.2431 6.21075C29.323 5.73173 29.5525 5.35251 29.9317 5.07309C30.3109 4.77371 30.7999 4.62401 31.3987 4.62401C31.9974 4.62401 32.4565 4.77371 32.7758 5.07309C33.0952 5.37247 33.4145 5.79161 33.7339 6.3305L39.5718 16.0605H38.7635L43.6734 6.36044C43.9129 5.92134 44.1923 5.52217 44.5117 5.16291C44.851 4.80365 45.35 4.62401 46.0086 4.62401C46.5674 4.62401 47.0265 4.76373 47.3858 5.04315C47.765 5.30262 48.0045 5.67186 48.1043 6.15087C48.2041 6.60993 48.0843 7.14882 47.745 7.76754L39.2425 24.533C39.023 24.9721 38.7436 25.3713 38.4043 25.7306C38.065 26.0898 37.556 26.2694 36.8774 26.2694ZM60.3137 26.2694C59.5753 26.2694 59.0064 26.0699 58.6073 25.6707C58.228 25.2715 58.0384 24.7027 58.0384 23.9642V14.8031H54.2063V16.4497C54.2063 17.727 54.1165 18.8847 53.9369 19.9225C53.7572 20.9604 53.4878 21.8785 53.1285 22.6768C52.7693 23.4752 52.3102 24.1538 51.7514 24.7127C51.1925 25.2515 50.5239 25.6807 49.7455 26C49.2266 26.2195 48.7575 26.2794 48.3384 26.1796C47.9193 26.0798 47.57 25.8902 47.2906 25.6108C47.0311 25.3314 46.8614 25.0021 46.7816 24.6228C46.7217 24.2237 46.7716 23.8345 46.9313 23.4552C47.1109 23.0561 47.4303 22.7168 47.8893 22.4373C48.3284 22.1978 48.6877 21.8885 48.9671 21.5092C49.2465 21.13 49.4661 20.681 49.6258 20.162C49.7854 19.6431 49.8952 19.0743 49.9551 18.4555C50.0349 17.8169 50.0748 17.0983 50.0748 16.3V13.845C50.0748 13.0267 50.2844 12.398 50.7035 11.9589C51.1426 11.5198 51.7713 11.3003 52.5897 11.3003H60.0443C60.8626 11.3003 61.4813 11.5198 61.9005 11.9589C62.3396 12.398 62.5591 13.0267 62.5591 13.845V23.9642C62.5591 24.7027 62.3595 25.2715 61.9604 25.6707C61.5811 26.0699 61.0323 26.2694 60.3137 26.2694ZM68.707 26C68.0084 26 67.4696 25.8104 67.0903 25.4312C66.7111 25.052 66.5215 24.5031 66.5215 23.7846V13.3361C66.5215 12.5776 66.7111 12.0088 67.0903 11.6296C67.4895 11.2504 68.0583 11.0608 68.7968 11.0608C69.5153 11.0608 70.0642 11.2504 70.4434 11.6296C70.8426 12.0088 71.0422 12.5776 71.0422 13.3361V15.9707H74.5749C76.5509 15.9707 78.0378 16.3898 79.0357 17.2281C80.0536 18.0464 80.5626 19.2639 80.5626 20.8805C80.5626 21.8984 80.3131 22.7966 79.8141 23.575C79.3152 24.3334 78.6166 24.9322 77.7185 25.3713C76.8403 25.7904 75.7924 26 74.5749 26H68.707ZM71.0422 23.096H73.7965C74.6148 23.096 75.2535 22.9163 75.7126 22.5571C76.1916 22.1978 76.4311 21.6589 76.4311 20.9404C76.4311 20.2219 76.2016 19.693 75.7425 19.3537C75.2835 19.0144 74.6348 18.8447 73.7965 18.8447H71.0422V23.096ZM84.3348 26.2694C83.6163 26.2694 83.0575 26.0699 82.6583 25.6707C82.2791 25.2715 82.0895 24.7027 82.0895 23.9642V13.3361C82.0895 12.5776 82.2791 12.0088 82.6583 11.6296C83.0575 11.2504 83.6163 11.0608 84.3348 11.0608C85.0733 11.0608 85.6322 11.2504 86.0114 11.6296C86.4106 12.0088 86.6101 12.5776 86.6101 13.3361V23.9642C86.6101 25.501 85.8517 26.2694 84.3348 26.2694ZM97.7991 26.3293C96.1825 26.3293 94.7754 26.01 93.5778 25.3713C92.3803 24.7127 91.4522 23.7446 90.7936 22.4673C90.1549 21.1699 89.8355 19.5732 89.8355 17.6771V15.5515C89.8355 13.5556 90.1449 11.8891 90.7636 10.5518C91.4023 9.1946 92.3404 8.10684 93.5778 7.28853C94.8153 6.47021 96.3421 5.86147 98.1584 5.46229L101.751 4.62401C102.37 4.4843 102.889 4.5342 103.308 4.77371C103.727 4.99326 103.996 5.40241 104.116 6.00118C104.236 6.59995 104.136 7.09892 103.817 7.4981C103.517 7.89727 103.058 8.15674 102.44 8.2765L98.4877 9.14471C97.5297 9.36425 96.7214 9.70356 96.0627 10.1626C95.4041 10.6217 94.9051 11.2005 94.5658 11.899C94.2265 12.5776 94.0568 13.386 94.0568 14.324V16.1802H93.488C93.6676 15.3419 93.987 14.5735 94.446 13.875C94.9251 13.1764 95.5538 12.6275 96.3322 12.2284C97.1305 11.8092 98.0686 11.5997 99.1464 11.5997C100.364 11.5997 101.442 11.8891 102.38 12.4679C103.318 13.0467 104.056 13.875 104.595 14.9527C105.154 16.0106 105.433 17.278 105.433 18.7549C105.433 20.2918 105.114 21.629 104.475 22.7667C103.837 23.9043 102.949 24.7825 101.811 25.4012C100.673 26.02 99.336 26.3293 97.7991 26.3293ZM97.6494 22.9463C98.348 22.9463 98.9368 22.7966 99.4158 22.4972C99.8948 22.1779 100.254 21.7288 100.494 21.15C100.753 20.5512 100.883 19.8227 100.883 18.9645C100.883 17.6672 100.593 16.6792 100.015 16.0006C99.4557 15.302 98.6574 14.9527 97.6195 14.9527C96.9409 14.9527 96.3521 15.1124 95.8531 15.4318C95.3741 15.7311 95.0049 16.1702 94.7454 16.749C94.5059 17.3279 94.3862 18.0264 94.3862 18.8447C94.3862 20.182 94.6656 21.1999 95.2244 21.8984C95.7833 22.597 96.5916 22.9463 97.6494 22.9463ZM110.898 26.2694C110.159 26.2694 109.59 26.0699 109.191 25.6707C108.812 25.2715 108.622 24.7027 108.622 23.9642V13.366C108.622 12.6275 108.812 12.0587 109.191 11.6595C109.59 11.2604 110.159 11.0608 110.898 11.0608C111.616 11.0608 112.165 11.2604 112.544 11.6595C112.943 12.0587 113.143 12.6275 113.143 13.366V16.779H114.909L118.262 12.1086C118.582 11.6495 118.951 11.3502 119.37 11.2105C119.809 11.0707 120.228 11.0608 120.628 11.1805C121.027 11.3003 121.356 11.5198 121.616 11.8392C121.875 12.1385 122.015 12.4978 122.035 12.9169C122.075 13.3361 121.925 13.7852 121.586 14.2642L118.352 18.8148L117.454 17.3478C117.993 17.4077 118.482 17.5674 118.921 17.8268C119.36 18.0863 119.759 18.4256 120.119 18.8447C120.478 19.2439 120.817 19.7329 121.137 20.3117L122.723 23.2157C123.003 23.7147 123.093 24.1837 122.993 24.6228C122.913 25.042 122.703 25.3913 122.364 25.6707C122.045 25.9501 121.665 26.1198 121.226 26.1796C120.787 26.2595 120.358 26.2096 119.939 26.0299C119.52 25.8503 119.171 25.501 118.891 24.9821L117.065 21.7488C116.865 21.3496 116.656 21.0402 116.436 20.8207C116.217 20.6011 115.967 20.4514 115.688 20.3716C115.428 20.2918 115.119 20.2518 114.76 20.2518H113.143V23.9642C113.143 24.7027 112.943 25.2715 112.544 25.6707C112.165 26.0699 111.616 26.2694 110.898 26.2694ZM130.929 26.3293C129.852 26.3293 128.884 26.1198 128.025 25.7006C127.167 25.2815 126.499 24.7127 126.02 23.9941C125.541 23.2756 125.301 22.4673 125.301 21.5691C125.301 20.4913 125.58 19.6431 126.139 19.0244C126.698 18.3857 127.606 17.9366 128.864 17.6771C130.121 17.3977 131.788 17.258 133.863 17.258H135.45V19.5932H133.893C132.875 19.5932 132.047 19.6531 131.408 19.7728C130.79 19.8726 130.341 20.0522 130.061 20.3117C129.802 20.5712 129.672 20.9304 129.672 21.3895C129.672 21.9483 129.862 22.4074 130.241 22.7667C130.64 23.1259 131.209 23.3055 131.947 23.3055C132.526 23.3055 133.035 23.1758 133.474 22.9163C133.933 22.6369 134.293 22.2677 134.552 21.8086C134.811 21.3296 134.941 20.7907 134.941 20.192V16.749C134.941 15.8709 134.742 15.2521 134.342 14.8929C133.943 14.5137 133.265 14.324 132.307 14.324C131.768 14.324 131.179 14.3939 130.54 14.5336C129.922 14.6534 129.233 14.8629 128.474 15.1623C128.035 15.3619 127.646 15.4118 127.307 15.312C126.968 15.1923 126.708 14.9927 126.528 14.7132C126.349 14.4139 126.259 14.0945 126.259 13.7552C126.259 13.396 126.359 13.0567 126.558 12.7373C126.758 12.398 127.087 12.1485 127.546 11.9889C128.484 11.6096 129.363 11.3502 130.181 11.2105C131.019 11.0707 131.788 11.0009 132.486 11.0009C134.023 11.0009 135.28 11.2304 136.258 11.6895C137.256 12.1286 138.005 12.8171 138.504 13.7552C139.003 14.6733 139.252 15.8609 139.252 17.3179V23.9642C139.252 24.7027 139.073 25.2715 138.713 25.6707C138.354 26.0699 137.835 26.2694 137.157 26.2694C136.478 26.2694 135.949 26.0699 135.57 25.6707C135.211 25.2715 135.031 24.7027 135.031 23.9642V22.8565L135.241 23.0361C135.121 23.7147 134.861 24.3035 134.462 24.8025C134.083 25.2815 133.594 25.6607 132.995 25.9401C132.396 26.1996 131.708 26.3293 130.929 26.3293Z" fill="white"/>
<path d="M22.1299 13.1746C22.1299 19.2856 17.1759 24.2395 11.0649 24.2395C4.95394 24.2395 0 19.2856 0 13.1746C0 7.66894 4.11648 6.47049 9.31504 7.97287C10.4538 8.30197 11.6679 8.28045 12.8041 7.94263C17.7 6.48697 22.1299 7.70634 22.1299 13.1746Z" fill="#389D3C"/>
<path fill-rule="evenodd" clip-rule="evenodd" d="M11.0649 13.7972C8.3484 13.7972 5.07139 12.3564 5.07139 12.3564C4.77398 12.5368 4.61035 12.9702 4.61035 13.7972C4.61035 17.2727 7.50015 20.0902 11.0649 20.0902V13.7972Z" fill="#37474F"/>
<path fill-rule="evenodd" clip-rule="evenodd" d="M11.065 13.7972C13.7815 13.7972 17.0585 12.3564 17.0585 12.3564C17.3559 12.5368 17.5195 12.9702 17.5195 13.7972C17.5195 17.2727 14.6297 20.0902 11.065 20.0902V13.7972Z" fill="#37474F"/>
<path d="M3.32131 40.6816C2.75435 40.6816 2.26401 40.5628 1.85028 40.3253C1.43655 40.0801 1.1186 39.7392 0.896409 39.3025C0.674222 38.8581 0.563129 38.3371 0.563129 37.7395C0.563129 37.2951 0.624422 36.8967 0.747007 36.5443C0.877255 36.1919 1.06113 35.893 1.29864 35.6479C1.53615 35.395 1.82346 35.2035 2.16058 35.0733C2.50535 34.943 2.89226 34.8779 3.32131 34.8779C3.58947 34.8779 3.87295 34.92 4.17175 35.0043C4.47055 35.0886 4.74637 35.2265 4.9992 35.418C5.08348 35.4793 5.13711 35.5521 5.1601 35.6364C5.18308 35.713 5.18308 35.7934 5.1601 35.8777C5.14477 35.962 5.10647 36.0348 5.04517 36.0961C4.99154 36.1497 4.91876 36.1804 4.82682 36.188C4.74254 36.1957 4.6506 36.1689 4.551 36.1076C4.36712 35.9697 4.17175 35.8701 3.96489 35.8088C3.76568 35.7475 3.57414 35.7168 3.39026 35.7168C3.10678 35.7168 2.85395 35.7628 2.63176 35.8547C2.41724 35.9467 2.23336 36.0808 2.08013 36.257C1.93456 36.4255 1.82346 36.6362 1.74685 36.8891C1.67023 37.1342 1.63192 37.4215 1.63192 37.751C1.63192 38.4022 1.78516 38.9156 2.09162 39.291C2.39809 39.6587 2.83097 39.8426 3.39026 39.8426C3.57414 39.8426 3.76568 39.8158 3.96489 39.7622C4.16409 39.7009 4.35946 39.6013 4.551 39.4634C4.6506 39.4021 4.74254 39.3791 4.82682 39.3944C4.91109 39.4021 4.98005 39.4365 5.03368 39.4978C5.09497 39.5515 5.13328 39.6204 5.1486 39.7047C5.16393 39.7813 5.15627 39.8618 5.12562 39.946C5.10264 40.0303 5.049 40.0993 4.96473 40.1529C4.71955 40.3368 4.4514 40.4709 4.16026 40.5551C3.86912 40.6394 3.58947 40.6816 3.32131 40.6816ZM8.06292 40.6586C7.89437 40.6586 7.76412 40.6126 7.67218 40.5207C7.58024 40.4287 7.53427 40.2946 7.53427 40.1184V35.8203H5.90235C5.59588 35.8203 5.44265 35.6785 5.44265 35.395C5.44265 35.2648 5.48479 35.1652 5.56907 35.0962C5.65334 35.0196 5.76444 34.9813 5.90235 34.9813H10.2005C10.5146 34.9813 10.6717 35.1192 10.6717 35.395C10.6717 35.533 10.6296 35.6402 10.5453 35.7168C10.4687 35.7858 10.3537 35.8203 10.2005 35.8203H8.58008V40.1184C8.58008 40.2946 8.53411 40.4287 8.44217 40.5207C8.35789 40.6126 8.23148 40.6586 8.06292 40.6586ZM13.8811 40.6816C13.3295 40.6816 12.8507 40.5628 12.4446 40.3253C12.0385 40.0878 11.7244 39.7507 11.5022 39.314C11.28 38.8772 11.1689 38.3639 11.1689 37.774C11.1689 37.3296 11.2302 36.9312 11.3528 36.5788C11.4831 36.2187 11.6669 35.9122 11.9044 35.6594C12.142 35.4065 12.4254 35.215 12.7549 35.0847C13.092 34.9468 13.4674 34.8779 13.8811 34.8779C14.4328 34.8779 14.9116 34.9966 15.3177 35.2341C15.7238 35.4717 16.0379 35.8088 16.2601 36.2455C16.4823 36.6745 16.5934 37.184 16.5934 37.774C16.5934 38.2183 16.5282 38.6206 16.398 38.9807C16.2754 39.3408 16.0953 39.6472 15.8578 39.9001C15.6203 40.1529 15.333 40.3483 14.9959 40.4862C14.6665 40.6164 14.2949 40.6816 13.8811 40.6816ZM13.8811 39.8541C14.2183 39.8541 14.5094 39.7737 14.7546 39.6128C15.0074 39.4519 15.1989 39.2182 15.3292 38.9117C15.4671 38.6053 15.536 38.226 15.536 37.774C15.536 37.0998 15.3866 36.5864 15.0878 36.234C14.789 35.8816 14.3868 35.7053 13.8811 35.7053C13.5517 35.7053 13.2605 35.7858 13.0077 35.9467C12.7625 36.0999 12.571 36.3298 12.4331 36.6362C12.2952 36.9427 12.2262 37.3219 12.2262 37.774C12.2262 38.4482 12.3756 38.9654 12.6744 39.3255C12.9809 39.6779 13.3831 39.8541 13.8811 39.8541ZM18.5274 40.6586C18.3818 40.6586 18.2669 40.6164 18.1826 40.5322C18.106 40.4402 18.0677 40.3138 18.0677 40.1529V35.464C18.0677 35.3414 18.083 35.238 18.1137 35.1537C18.152 35.0694 18.2056 35.0081 18.2746 34.9698C18.3435 34.9239 18.4316 34.9009 18.5389 34.9009C18.6385 34.9009 18.7228 34.92 18.7917 34.9583C18.8607 34.989 18.9181 35.0311 18.9641 35.0847C19.0177 35.1384 19.0637 35.2035 19.102 35.2801L20.9983 38.6244L22.883 35.2801C22.929 35.1958 22.975 35.1269 23.0209 35.0733C23.0669 35.0196 23.1244 34.9775 23.1933 34.9468C23.2623 34.9162 23.3466 34.9009 23.4462 34.9009C23.607 34.9009 23.7258 34.9507 23.8024 35.0503C23.879 35.1422 23.9173 35.2801 23.9173 35.464V40.1529C23.9173 40.3138 23.8752 40.4402 23.7909 40.5322C23.7143 40.6164 23.6032 40.6586 23.4576 40.6586C23.3121 40.6586 23.1972 40.6164 23.1129 40.5322C23.0286 40.4402 22.9865 40.3138 22.9865 40.1529V36.188H23.2508L21.366 39.4863C21.3277 39.5476 21.2817 39.6051 21.2281 39.6587C21.1745 39.7047 21.0979 39.7277 20.9983 39.7277C20.891 39.7277 20.8106 39.7047 20.7569 39.6587C20.711 39.6051 20.6688 39.5476 20.6305 39.4863L18.7343 36.188H18.9871V40.1529C18.9871 40.3138 18.9488 40.4402 18.8722 40.5322C18.7956 40.6164 18.6806 40.6586 18.5274 40.6586ZM27.4919 40.6816C27.1089 40.6816 26.7603 40.6049 26.4461 40.4517C26.1397 40.2985 25.8983 40.0916 25.7221 39.8311C25.5535 39.5706 25.4693 39.2795 25.4693 38.9577C25.4693 38.544 25.5727 38.2183 25.7796 37.9808C25.9864 37.7433 26.335 37.5748 26.8254 37.4752C27.3157 37.3679 27.9746 37.3143 28.8021 37.3143H29.3422V37.9808H28.8251C28.2351 37.9808 27.7678 38.0077 27.423 38.0613C27.0859 38.1149 26.8484 38.2107 26.7105 38.3486C26.5725 38.4788 26.5036 38.6627 26.5036 38.9002C26.5036 39.199 26.607 39.4442 26.8139 39.6357C27.0284 39.8273 27.3195 39.9231 27.6873 39.9231C27.9784 39.9231 28.2351 39.8541 28.4573 39.7162C28.6795 39.5706 28.8557 39.3791 28.986 39.1416C29.1162 38.8964 29.1813 38.6168 29.1813 38.3026V36.981C29.1813 36.529 29.0894 36.2033 28.9055 36.0041C28.7216 35.7973 28.4113 35.6938 27.9746 35.6938C27.7218 35.6938 27.4613 35.7283 27.1931 35.7973C26.925 35.8662 26.6453 35.9735 26.3542 36.1191C26.2393 36.1727 26.1397 36.1919 26.0554 36.1765C25.9711 36.1535 25.9022 36.1076 25.8485 36.0386C25.8025 35.962 25.7757 35.8816 25.7681 35.7973C25.7681 35.7053 25.7872 35.6172 25.8255 35.533C25.8715 35.4487 25.9481 35.3874 26.0554 35.3491C26.3925 35.1805 26.7258 35.0618 27.0552 34.9928C27.3923 34.9162 27.7065 34.8779 27.9976 34.8779C28.4956 34.8779 28.9055 34.9583 29.2273 35.1192C29.5491 35.2725 29.7904 35.5138 29.9513 35.8432C30.1122 36.165 30.1927 36.5788 30.1927 37.0844V40.1184C30.1927 40.2946 30.1505 40.4287 30.0662 40.5207C29.982 40.6126 29.8594 40.6586 29.6985 40.6586C29.5452 40.6586 29.4227 40.6126 29.3307 40.5207C29.2464 40.4287 29.2043 40.2946 29.2043 40.1184V39.3025H29.3077C29.2464 39.5859 29.1315 39.8311 28.963 40.038C28.7944 40.2448 28.5837 40.4057 28.3309 40.5207C28.0857 40.6279 27.8061 40.6816 27.4919 40.6816ZM33.6627 40.6586C33.4942 40.6586 33.3639 40.6126 33.272 40.5207C33.1801 40.4287 33.1341 40.2946 33.1341 40.1184V35.8203H31.5022C31.1957 35.8203 31.0425 35.6785 31.0425 35.395C31.0425 35.2648 31.0846 35.1652 31.1689 35.0962C31.2532 35.0196 31.3643 34.9813 31.5022 34.9813H35.8003C36.1145 34.9813 36.2715 35.1192 36.2715 35.395C36.2715 35.533 36.2294 35.6402 36.1451 35.7168C36.0685 35.7858 35.9536 35.8203 35.8003 35.8203H34.1799V40.1184C34.1799 40.2946 34.1339 40.4287 34.042 40.5207C33.9577 40.6126 33.8313 40.6586 33.6627 40.6586ZM39.481 40.6816C38.9293 40.6816 38.4505 40.5628 38.0444 40.3253C37.6383 40.0878 37.3242 39.7507 37.102 39.314C36.8798 38.8772 36.7687 38.3639 36.7687 37.774C36.7687 37.3296 36.83 36.9312 36.9526 36.5788C37.0829 36.2187 37.2667 35.9122 37.5043 35.6594C37.7418 35.4065 38.0252 35.215 38.3547 35.0847C38.6918 34.9468 39.0672 34.8779 39.481 34.8779C40.0326 34.8779 40.5114 34.9966 40.9175 35.2341C41.3236 35.4717 41.6377 35.8088 41.8599 36.2455C42.0821 36.6745 42.1932 37.184 42.1932 37.774C42.1932 38.2183 42.128 38.6206 41.9978 38.9807C41.8752 39.3408 41.6952 39.6472 41.4577 39.9001C41.2201 40.1529 40.9328 40.3483 40.5957 40.4862C40.2663 40.6164 39.8947 40.6816 39.481 40.6816ZM39.481 39.8541C39.8181 39.8541 40.1092 39.7737 40.3544 39.6128C40.6072 39.4519 40.7988 39.2182 40.929 38.9117C41.0669 38.6053 41.1359 38.226 41.1359 37.774C41.1359 37.0998 40.9865 36.5864 40.6877 36.234C40.3889 35.8816 39.9866 35.7053 39.481 35.7053C39.1515 35.7053 38.8604 35.7858 38.6075 35.9467C38.3624 36.0999 38.1708 36.3298 38.0329 36.6362C37.895 36.9427 37.826 37.3219 37.826 37.774C37.826 38.4482 37.9754 38.9654 38.2743 39.3255C38.5807 39.6779 38.983 39.8541 39.481 39.8541ZM47.8994 40.6586C47.7309 40.6586 47.6006 40.6126 47.5087 40.5207C47.4167 40.4287 47.3708 40.2946 47.3708 40.1184V35.8203H45.2332V36.5098C45.2332 37.0921 45.2025 37.6092 45.1412 38.0613C45.0799 38.5057 44.9842 38.8926 44.8539 39.222C44.7313 39.5515 44.5666 39.8273 44.3598 40.0495C44.1606 40.2717 43.9116 40.4517 43.6127 40.5896C43.4978 40.6432 43.3906 40.6586 43.291 40.6356C43.1914 40.6203 43.1071 40.5781 43.0381 40.5092C42.9768 40.4402 42.9347 40.3598 42.9117 40.2678C42.8964 40.1759 42.9079 40.084 42.9462 39.992C42.9845 39.9001 43.0611 39.8235 43.176 39.7622C43.3906 39.6396 43.5668 39.4902 43.7047 39.314C43.8426 39.1301 43.9499 38.9079 44.0265 38.6474C44.1108 38.3869 44.1682 38.0804 44.1989 37.728C44.2372 37.3756 44.2563 36.9618 44.2563 36.4868V35.5789C44.2563 35.3874 44.3061 35.2418 44.4057 35.1422C44.513 35.0349 44.6624 34.9813 44.8539 34.9813H47.8305C48.022 34.9813 48.1676 35.0349 48.2672 35.1422C48.3668 35.2418 48.4166 35.3874 48.4166 35.5789V40.1184C48.4166 40.2946 48.3706 40.4287 48.2787 40.5207C48.1867 40.6126 48.0603 40.6586 47.8994 40.6586ZM52.5895 40.6816C52.0379 40.6816 51.559 40.5628 51.1529 40.3253C50.7469 40.0878 50.4328 39.7507 50.2106 39.314C49.9884 38.8772 49.8773 38.3639 49.8773 37.774C49.8773 37.3296 49.9386 36.9312 50.0612 36.5788C50.1914 36.2187 50.3753 35.9122 50.6128 35.6594C50.8503 35.4065 51.1338 35.215 51.4632 35.0847C51.8004 34.9468 52.1758 34.8779 52.5895 34.8779C53.1411 34.8779 53.62 34.9966 54.0261 35.2341C54.4321 35.4717 54.7462 35.8088 54.9684 36.2455C55.1906 36.6745 55.3017 37.184 55.3017 37.774C55.3017 38.2183 55.2366 38.6206 55.1063 38.9807C54.9838 39.3408 54.8037 39.6472 54.5662 39.9001C54.3287 40.1529 54.0414 40.3483 53.7043 40.4862C53.3748 40.6164 53.0032 40.6816 52.5895 40.6816ZM52.5895 39.8541C52.9266 39.8541 53.2178 39.7737 53.4629 39.6128C53.7158 39.4519 53.9073 39.2182 54.0375 38.9117C54.1755 38.6053 54.2444 38.226 54.2444 37.774C54.2444 37.0998 54.095 36.5864 53.7962 36.234C53.4974 35.8816 53.0952 35.7053 52.5895 35.7053C52.2601 35.7053 51.9689 35.7858 51.7161 35.9467C51.4709 36.0999 51.2794 36.3298 51.1415 36.6362C51.0035 36.9427 50.9346 37.3219 50.9346 37.774C50.9346 38.4482 51.084 38.9654 51.3828 39.3255C51.6893 39.6779 52.0915 39.8541 52.5895 39.8541ZM57.3047 40.6586C57.1362 40.6586 57.0059 40.6126 56.914 40.5207C56.822 40.4211 56.7761 40.2832 56.7761 40.1069V35.5789C56.7761 35.3874 56.8259 35.2418 56.9255 35.1422C57.0327 35.0349 57.1821 34.9813 57.3737 34.9813H60.3847C60.5456 34.9813 60.6643 35.0158 60.7409 35.0847C60.8176 35.1537 60.8559 35.2571 60.8559 35.395C60.8559 35.533 60.8176 35.6402 60.7409 35.7168C60.6643 35.7858 60.5456 35.8203 60.3847 35.8203H57.8219V40.1069C57.8219 40.4747 57.6495 40.6586 57.3047 40.6586ZM62.3203 40.6586C62.2207 40.6586 62.1326 40.6394 62.056 40.6011C61.9871 40.5628 61.9334 40.5015 61.8951 40.4172C61.8568 40.333 61.8377 40.2257 61.8377 40.0954V35.4065C61.8377 35.2456 61.8798 35.1231 61.9641 35.0388C62.0484 34.9468 62.1671 34.9009 62.3203 34.9009C62.4659 34.9009 62.5808 34.9468 62.6651 35.0388C62.7494 35.1231 62.7915 35.2456 62.7915 35.4065V39.5553H62.4927L65.7336 35.2341C65.7949 35.1499 65.8715 35.0733 65.9634 35.0043C66.0554 34.9353 66.178 34.9009 66.3312 34.9009C66.4385 34.9009 66.5266 34.92 66.5955 34.9583C66.6645 34.9966 66.7143 35.0579 66.7449 35.1422C66.7832 35.2188 66.8024 35.3223 66.8024 35.4525V40.1529C66.8024 40.3061 66.7603 40.4287 66.676 40.5207C66.5994 40.6126 66.4883 40.6586 66.3427 40.6586C66.1818 40.6586 66.0592 40.6126 65.9749 40.5207C65.8983 40.4287 65.86 40.3061 65.86 40.1529V35.9926H66.1588L62.918 40.3253C62.8567 40.4096 62.78 40.4862 62.6881 40.5551C62.5962 40.6241 62.4736 40.6586 62.3203 40.6586ZM72.6853 40.6586C72.5167 40.6586 72.3864 40.6126 72.2945 40.5207C72.2102 40.4211 72.1681 40.2832 72.1681 40.1069V38.3716C71.9536 38.4942 71.7237 38.5861 71.4785 38.6474C71.241 38.7087 70.992 38.7393 70.7315 38.7393C69.9194 38.7393 69.3218 38.5478 68.9387 38.1647C68.5556 37.774 68.3641 37.1879 68.3641 36.4064V35.4295C68.3641 35.2533 68.4062 35.1231 68.4905 35.0388C68.5825 34.9468 68.7127 34.9009 68.8813 34.9009C69.0498 34.9009 69.1801 34.9468 69.272 35.0388C69.3639 35.1231 69.4099 35.2533 69.4099 35.4295V36.3259C69.4099 36.8622 69.5248 37.253 69.7547 37.4982C69.9845 37.7433 70.3561 37.8659 70.8694 37.8659C71.1299 37.8659 71.3636 37.8391 71.5705 37.7855C71.7774 37.7242 71.9727 37.6284 72.1566 37.4982V35.4525C72.1566 35.0847 72.3328 34.9009 72.6853 34.9009C72.8538 34.9009 72.9802 34.9468 73.0645 35.0388C73.1564 35.1307 73.2024 35.2686 73.2024 35.4525V40.1069C73.2024 40.2832 73.1603 40.4211 73.076 40.5207C72.9917 40.6126 72.8615 40.6586 72.6853 40.6586ZM77.5769 40.6816C76.9716 40.6816 76.4506 40.5666 76.0139 40.3368C75.5849 40.0993 75.2516 39.766 75.0141 39.3369C74.7766 38.9002 74.6578 38.3869 74.6578 37.797C74.6578 37.2147 74.7727 36.7052 75.0026 36.2685C75.2401 35.8318 75.5619 35.4908 75.968 35.2456C76.3817 35.0005 76.8529 34.8779 77.3815 34.8779C77.7569 34.8779 78.0941 34.943 78.3929 35.0733C78.6993 35.1958 78.9598 35.3759 79.1743 35.6134C79.3889 35.8509 79.5498 36.1421 79.657 36.4868C79.772 36.8239 79.8294 37.207 79.8294 37.6361C79.8294 37.7587 79.7911 37.8544 79.7145 37.9234C79.6455 37.9847 79.5421 38.0153 79.4042 38.0153H75.4738V37.3488H79.1399L78.9445 37.5096C78.9445 37.1112 78.8832 36.7741 78.7606 36.4983C78.6457 36.2148 78.4733 36.0003 78.2435 35.8547C78.0213 35.7092 77.7416 35.6364 77.4045 35.6364C77.0368 35.6364 76.7226 35.7245 76.4621 35.9007C76.2016 36.0693 76.0024 36.3106 75.8645 36.6247C75.7266 36.9312 75.6577 37.2875 75.6577 37.6935V37.7625C75.6577 38.452 75.8224 38.973 76.1518 39.3255C76.4813 39.6779 76.9563 39.8541 77.5769 39.8541C77.8221 39.8541 78.0711 39.8235 78.3239 39.7622C78.5844 39.7009 78.8334 39.5898 79.0709 39.4289C79.1858 39.3599 79.2893 39.3293 79.3812 39.3369C79.4808 39.3369 79.5613 39.3676 79.6226 39.4289C79.6838 39.4825 79.7222 39.5515 79.7375 39.6357C79.7528 39.7124 79.7413 39.7966 79.703 39.8886C79.6647 39.9805 79.5919 40.061 79.4846 40.1299C79.2318 40.3061 78.9292 40.444 78.5767 40.5436C78.232 40.6356 77.8987 40.6816 77.5769 40.6816ZM83.6785 40.6816C83.1115 40.6816 82.6212 40.5628 82.2074 40.3253C81.7937 40.0801 81.4758 39.7392 81.2536 39.3025C81.0314 38.8581 80.9203 38.3371 80.9203 37.7395C80.9203 37.2951 80.9816 36.8967 81.1042 36.5443C81.2344 36.1919 81.4183 35.893 81.6558 35.6479C81.8933 35.395 82.1806 35.2035 82.5177 35.0733C82.8625 34.943 83.2494 34.8779 83.6785 34.8779C83.9466 34.8779 84.2301 34.92 84.5289 35.0043C84.8277 35.0886 85.1035 35.2265 85.3564 35.418C85.4406 35.4793 85.4943 35.5521 85.5173 35.6364C85.5402 35.713 85.5402 35.7934 85.5173 35.8777C85.5019 35.962 85.4636 36.0348 85.4023 36.0961C85.3487 36.1497 85.2759 36.1804 85.184 36.188C85.0997 36.1957 85.0078 36.1689 84.9082 36.1076C84.7243 35.9697 84.5289 35.8701 84.322 35.8088C84.1228 35.7475 83.9313 35.7168 83.7474 35.7168C83.4639 35.7168 83.2111 35.7628 82.9889 35.8547C82.7744 35.9467 82.5905 36.0808 82.4373 36.257C82.2917 36.4255 82.1806 36.6362 82.104 36.8891C82.0274 37.1342 81.9891 37.4215 81.9891 37.751C81.9891 38.4022 82.1423 38.9156 82.4488 39.291C82.7552 39.6587 83.1881 39.8426 83.7474 39.8426C83.9313 39.8426 84.1228 39.8158 84.322 39.7622C84.5213 39.7009 84.7166 39.6013 84.9082 39.4634C85.0078 39.4021 85.0997 39.3791 85.184 39.3944C85.2683 39.4021 85.3372 39.4365 85.3908 39.4978C85.4521 39.5515 85.4904 39.6204 85.5058 39.7047C85.5211 39.7813 85.5134 39.8618 85.4828 39.946C85.4598 40.0303 85.4062 40.0993 85.3219 40.1529C85.0767 40.3368 84.8086 40.4709 84.5174 40.5551C84.2263 40.6394 83.9466 40.6816 83.6785 40.6816ZM87.2479 40.6586C87.0793 40.6586 86.9491 40.6126 86.8571 40.5207C86.7652 40.4287 86.7192 40.2946 86.7192 40.1184V35.4525C86.7192 35.2839 86.7652 35.1537 86.8571 35.0618C86.9491 34.9698 87.0793 34.9239 87.2479 34.9239C87.4164 34.9239 87.5428 34.9698 87.6271 35.0618C87.719 35.1537 87.765 35.2839 87.765 35.4525V37.2798H88.7534L90.4083 35.1537C90.4849 35.0464 90.573 34.9813 90.6726 34.9583C90.7722 34.9277 90.868 34.9277 90.9599 34.9583C91.0519 34.9813 91.1285 35.0311 91.1898 35.1077C91.2511 35.1843 91.2817 35.2725 91.2817 35.3721C91.2817 35.4717 91.2396 35.5751 91.1553 35.6824L89.5923 37.7165L89.328 37.3947C89.5349 37.4177 89.7187 37.4713 89.8796 37.5556C90.0405 37.6399 90.1938 37.7663 90.3393 37.9349C90.4849 38.1034 90.642 38.3294 90.8105 38.6129L91.592 39.946C91.661 40.061 91.6839 40.1682 91.6609 40.2678C91.6456 40.3674 91.5997 40.4517 91.523 40.5207C91.4541 40.582 91.3698 40.6203 91.2702 40.6356C91.1706 40.6586 91.071 40.6471 90.9714 40.6011C90.8718 40.5628 90.7875 40.4862 90.7186 40.3713L89.8451 38.9002C89.7226 38.6934 89.6038 38.5325 89.4889 38.4175C89.374 38.3026 89.2475 38.2222 89.1096 38.1762C88.9717 38.1302 88.8032 38.1073 88.604 38.1073H87.765V40.1184C87.765 40.2946 87.719 40.4287 87.6271 40.5207C87.5428 40.6126 87.4164 40.6586 87.2479 40.6586ZM93.3409 40.6586C93.2413 40.6586 93.1532 40.6394 93.0766 40.6011C93.0076 40.5628 92.954 40.5015 92.9157 40.4172C92.8774 40.333 92.8582 40.2257 92.8582 40.0954V35.4065C92.8582 35.2456 92.9004 35.1231 92.9846 35.0388C93.0689 34.9468 93.1877 34.9009 93.3409 34.9009C93.4865 34.9009 93.6014 34.9468 93.6857 35.0388C93.77 35.1231 93.8121 35.2456 93.8121 35.4065V39.5553H93.5133L96.7542 35.2341C96.8154 35.1499 96.8921 35.0733 96.984 35.0043C97.0759 34.9353 97.1985 34.9009 97.3518 34.9009C97.459 34.9009 97.5471 34.92 97.6161 34.9583C97.685 34.9966 97.7348 35.0579 97.7655 35.1422C97.8038 35.2188 97.823 35.3223 97.823 35.4525V40.1529C97.823 40.3061 97.7808 40.4287 97.6965 40.5207C97.6199 40.6126 97.5088 40.6586 97.3633 40.6586C97.2024 40.6586 97.0798 40.6126 96.9955 40.5207C96.9189 40.4287 96.8806 40.3061 96.8806 40.1529V35.9926H97.1794L93.9385 40.3253C93.8772 40.4096 93.8006 40.4862 93.7087 40.5551C93.6167 40.6241 93.4941 40.6586 93.3409 40.6586ZM100.097 40.6586C99.9976 40.6586 99.9095 40.6394 99.8329 40.6011C99.7639 40.5628 99.7103 40.5015 99.672 40.4172C99.6337 40.333 99.6145 40.2257 99.6145 40.0954V35.4065C99.6145 35.2456 99.6566 35.1231 99.7409 35.0388C99.8252 34.9468 99.944 34.9009 100.097 34.9009C100.243 34.9009 100.358 34.9468 100.442 35.0388C100.526 35.1231 100.568 35.2456 100.568 35.4065V39.5553H100.27L103.51 35.2341C103.572 35.1499 103.648 35.0733 103.74 35.0043C103.832 34.9353 103.955 34.9009 104.108 34.9009C104.215 34.9009 104.303 34.92 104.372 34.9583C104.441 34.9966 104.491 35.0579 104.522 35.1422C104.56 35.2188 104.579 35.3223 104.579 35.4525V40.1529C104.579 40.3061 104.537 40.4287 104.453 40.5207C104.376 40.6126 104.265 40.6586 104.12 40.6586C103.959 40.6586 103.836 40.6126 103.752 40.5207C103.675 40.4287 103.637 40.3061 103.637 40.1529V35.9926H103.936L100.695 40.3253C100.634 40.4096 100.557 40.4862 100.465 40.5551C100.373 40.6241 100.25 40.6586 100.097 40.6586ZM102.097 34.2688C101.675 34.2688 101.292 34.1654 100.948 33.9585C100.603 33.744 100.35 33.426 100.189 33.0046C100.143 32.8897 100.136 32.7939 100.166 32.7173C100.204 32.633 100.27 32.5756 100.362 32.5449C100.453 32.5143 100.534 32.5181 100.603 32.5564C100.679 32.5947 100.745 32.6713 100.798 32.7863C100.928 33.0621 101.101 33.2728 101.315 33.4183C101.538 33.5563 101.798 33.6252 102.097 33.6252C102.403 33.6252 102.664 33.5563 102.878 33.4183C103.093 33.2728 103.265 33.0621 103.396 32.7863C103.457 32.6713 103.522 32.5947 103.591 32.5564C103.66 32.5181 103.74 32.5143 103.832 32.5449C103.924 32.5756 103.985 32.633 104.016 32.7173C104.054 32.7939 104.047 32.8897 103.993 33.0046C103.809 33.426 103.553 33.744 103.223 33.9585C102.894 34.1654 102.518 34.2688 102.097 34.2688ZM114.654 42.1526C114.508 42.1526 114.397 42.1143 114.321 42.0377C114.244 41.961 114.206 41.8461 114.206 41.6929V40.5781H109.907C109.731 40.5781 109.597 40.5322 109.505 40.4402C109.413 40.3483 109.367 40.2142 109.367 40.038V35.4295C109.367 35.2533 109.413 35.1231 109.505 35.0388C109.597 34.9468 109.727 34.9009 109.896 34.9009C110.065 34.9009 110.191 34.9468 110.275 35.0388C110.367 35.1231 110.413 35.2533 110.413 35.4295V39.7392H113.16V35.4295C113.16 35.2533 113.206 35.1231 113.298 35.0388C113.39 34.9468 113.52 34.9009 113.689 34.9009C113.857 34.9009 113.983 34.9468 114.068 35.0388C114.16 35.1231 114.206 35.2533 114.206 35.4295V40.2334L113.723 39.7392H114.596C114.757 39.7392 114.88 39.7851 114.964 39.8771C115.056 39.9614 115.102 40.084 115.102 40.2448V41.6929C115.102 41.9994 114.953 42.1526 114.654 42.1526ZM118.878 40.6816C118.273 40.6816 117.752 40.5666 117.315 40.3368C116.886 40.0993 116.552 39.766 116.315 39.3369C116.077 38.9002 115.959 38.3869 115.959 37.797C115.959 37.2147 116.074 36.7052 116.303 36.2685C116.541 35.8318 116.863 35.4908 117.269 35.2456C117.683 35.0005 118.154 34.8779 118.682 34.8779C119.058 34.8779 119.395 34.943 119.694 35.0733C120 35.1958 120.261 35.3759 120.475 35.6134C120.69 35.8509 120.851 36.1421 120.958 36.4868C121.073 36.8239 121.13 37.207 121.13 37.6361C121.13 37.7587 121.092 37.8544 121.015 37.9234C120.946 37.9847 120.843 38.0153 120.705 38.0153H116.775V37.3488H120.441L120.245 37.5096C120.245 37.1112 120.184 36.7741 120.062 36.4983C119.947 36.2148 119.774 36.0003 119.544 35.8547C119.322 35.7092 119.043 35.6364 118.705 35.6364C118.338 35.6364 118.024 35.7245 117.763 35.9007C117.503 36.0693 117.303 36.3106 117.165 36.6247C117.028 36.9312 116.959 37.2875 116.959 37.6935V37.7625C116.959 38.452 117.123 38.973 117.453 39.3255C117.782 39.6779 118.257 39.8541 118.878 39.8541C119.123 39.8541 119.372 39.8235 119.625 39.7622C119.885 39.7009 120.134 39.5898 120.372 39.4289C120.487 39.3599 120.59 39.3293 120.682 39.3369C120.782 39.3369 120.862 39.3676 120.923 39.4289C120.985 39.4825 121.023 39.5515 121.038 39.6357C121.054 39.7124 121.042 39.7966 121.004 39.8886C120.966 39.9805 120.893 40.061 120.786 40.1299C120.533 40.3061 120.23 40.444 119.878 40.5436C119.533 40.6356 119.2 40.6816 118.878 40.6816ZM123.083 40.6586C122.915 40.6586 122.784 40.6126 122.692 40.5207C122.6 40.4287 122.554 40.2946 122.554 40.1184V35.4295C122.554 35.2533 122.6 35.1231 122.692 35.0388C122.784 34.9468 122.915 34.9009 123.083 34.9009C123.252 34.9009 123.378 34.9468 123.462 35.0388C123.554 35.1231 123.6 35.2533 123.6 35.4295V37.2798H126.519V35.4295C126.519 35.2533 126.561 35.1231 126.646 35.0388C126.738 34.9468 126.868 34.9009 127.037 34.9009C127.205 34.9009 127.335 34.9468 127.427 35.0388C127.519 35.1231 127.565 35.2533 127.565 35.4295V40.1184C127.565 40.2946 127.519 40.4287 127.427 40.5207C127.335 40.6126 127.205 40.6586 127.037 40.6586C126.868 40.6586 126.738 40.6126 126.646 40.5207C126.561 40.4287 126.519 40.2946 126.519 40.1184V38.1187H123.6V40.1184C123.6 40.2946 123.558 40.4287 123.474 40.5207C123.39 40.6126 123.259 40.6586 123.083 40.6586ZM131.057 40.6586C130.888 40.6586 130.758 40.6126 130.666 40.5207C130.574 40.4287 130.528 40.2946 130.528 40.1184V35.8203H128.896C128.589 35.8203 128.436 35.6785 128.436 35.395C128.436 35.2648 128.478 35.1652 128.563 35.0962C128.647 35.0196 128.758 34.9813 128.896 34.9813H133.194C133.508 34.9813 133.665 35.1192 133.665 35.395C133.665 35.533 133.623 35.6402 133.539 35.7168C133.462 35.7858 133.347 35.8203 133.194 35.8203H131.574V40.1184C131.574 40.2946 131.528 40.4287 131.436 40.5207C131.351 40.6126 131.225 40.6586 131.057 40.6586ZM135.047 42.7272C134.886 42.7272 134.759 42.6812 134.667 42.5893C134.575 42.4974 134.529 42.3671 134.529 42.1986V35.4295C134.529 35.2533 134.575 35.1231 134.667 35.0388C134.759 34.9468 134.886 34.9009 135.047 34.9009C135.215 34.9009 135.342 34.9468 135.426 35.0388C135.518 35.1231 135.564 35.2533 135.564 35.4295V36.4753L135.437 36.2685C135.56 35.8471 135.801 35.51 136.161 35.2571C136.522 35.0043 136.954 34.8779 137.46 34.8779C137.958 34.8779 138.391 34.9966 138.759 35.2341C139.126 35.464 139.414 35.7973 139.621 36.234C139.827 36.663 139.931 37.1764 139.931 37.774C139.931 38.3639 139.827 38.8811 139.621 39.3255C139.421 39.7622 139.134 40.0993 138.759 40.3368C138.391 40.5666 137.958 40.6816 137.46 40.6816C136.962 40.6816 136.533 40.5551 136.173 40.3023C135.813 40.0495 135.571 39.7162 135.449 39.3025H135.575V42.1986C135.575 42.3671 135.529 42.4974 135.437 42.5893C135.345 42.6812 135.215 42.7272 135.047 42.7272ZM137.219 39.8541C137.548 39.8541 137.835 39.7737 138.081 39.6128C138.333 39.4519 138.529 39.2182 138.667 38.9117C138.805 38.6053 138.874 38.226 138.874 37.774C138.874 37.0998 138.724 36.5864 138.425 36.234C138.127 35.8816 137.724 35.7053 137.219 35.7053C136.882 35.7053 136.587 35.7858 136.334 35.9467C136.089 36.0999 135.897 36.3298 135.759 36.6362C135.629 36.9427 135.564 37.3219 135.564 37.774C135.564 38.4482 135.713 38.9654 136.012 39.3255C136.311 39.6779 136.713 39.8541 137.219 39.8541Z" fill="white"/>
</svg>
